<?xml version="1.0" encoding="iso-8859-1"?>
<!-- Generator: Adobe Illustrator 19.0.0, SVG Export Plug-In . SVG Version: 6.00 Build 0)  -->
<svg version="1.1" id="Layer_1" xmlns="http://www.w3.org/2000/svg" xmlns:xlink="http://www.w3.org/1999/xlink" x="0px" y="0px"
	 viewBox="0 0 495 495" style="enable-background:new 0 0 495 495;" xml:space="preserve">
<g>
	<polygon style="fill:#ACABB1;" points="247.5,0 247.5,40 455,40 455,455 247.5,455 247.5,495 495,495 495,0 	"/>
	<polygon style="fill:#C6C5CA;" points="40,455 40,40 247.5,40 247.5,0 0,0 0,495 247.5,495 247.5,455 	"/>
	<path style="fill:#C6C5CA;" d="M293.814,140.303c10.995-13.338,18.416-31.843,16.391-50.303
		c-15.835,0.645-35.031,10.547-46.392,23.855c-10.193,11.806-19.118,30.648-16.727,48.738
		C264.765,163.972,282.811,153.608,293.814,140.303z"/>
	<path style="fill:#C6C5CA;" d="M202.121,404.98c19.947-0.796,27.49-12.905,51.607-12.905c24.114,0,30.891,12.905,52.001,12.508
		c21.464-0.399,35.063-19.502,48.203-38.695c15.192-22.2,21.446-43.695,21.815-44.797c-0.478-0.219-41.855-16.069-42.27-63.72
		c-0.397-39.891,32.534-59.024,34.006-59.973c-18.502-27.079-47.326-30.786-57.597-31.216c-24.532-2.484-47.864,14.44-60.316,14.44
		c-12.415,0-31.627-14.073-51.97-13.704c-26.736,0.397-51.391,15.546-65.159,39.492c-27.779,48.203-7.114,119.613,19.962,158.708
		C165.634,384.255,181.407,405.749,202.121,404.98z"/>
</g>
<g>
</g>
<g>
</g>
<g>
</g>
<g>
</g>
<g>
</g>
<g>
</g>
<g>
</g>
<g>
</g>
<g>
</g>
<g>
</g>
<g>
</g>
<g>
</g>
<g>
</g>
<g>
</g>
<g>
</g>
</svg>
