<?xml version="1.0" encoding="iso-8859-1"?>
<!-- Generator: Adobe Illustrator 16.0.0, SVG Export Plug-In . SVG Version: 6.00 Build 0)  -->
<!DOCTYPE svg PUBLIC "-//W3C//DTD SVG 1.1//EN" "http://www.w3.org/Graphics/SVG/1.1/DTD/svg11.dtd">
<svg version="1.1" id="Capa_1" xmlns="http://www.w3.org/2000/svg" xmlns:xlink="http://www.w3.org/1999/xlink" x="0px" y="0px"
	 width="105.5px" height="105.5px" viewBox="0 0 105.5 105.5" style="enable-background:new 0 0 105.5 105.5;" xml:space="preserve"
	>
<g>
	<path d="M86.25,105.5h-67c-2.206,0-4-1.795-4-4V4c0-2.205,1.794-4,4-4h67c2.206,0,4,1.795,4,4v97.5
		C90.25,103.705,88.456,105.5,86.25,105.5z M19.25,1c-1.654,0-3,1.346-3,3v97.5c0,1.654,1.346,3,3,3h67c1.654,0,3-1.346,3-3V4
		c0-1.654-1.346-3-3-3H19.25z M52.75,102.916c-1.746,0-3.167-1.42-3.167-3.166s1.42-3.166,3.167-3.166s3.167,1.42,3.167,3.166
		S54.496,102.916,52.75,102.916z M52.75,97.584c-1.195,0-2.167,0.971-2.167,2.166s0.972,2.166,2.167,2.166
		c1.195,0,2.167-0.971,2.167-2.166S53.945,97.584,52.75,97.584z M85.75,94.75H19.601v-85H85.75V94.75z M20.601,93.75H84.75v-83
		H20.601V93.75z M54.833,6.584h-4.167c-0.551,0-1-0.449-1-1c0-0.553,0.449-1,1-1h4.167c0.551,0,1,0.447,1,1
		C55.833,6.135,55.385,6.584,54.833,6.584z"/>
</g>
<g>
</g>
<g>
</g>
<g>
</g>
<g>
</g>
<g>
</g>
<g>
</g>
<g>
</g>
<g>
</g>
<g>
</g>
<g>
</g>
<g>
</g>
<g>
</g>
<g>
</g>
<g>
</g>
<g>
</g>
</svg>
