<?xml version="1.0" encoding="UTF-8" standalone="no"?>
<svg width="128px" height="128px" viewBox="-31 0 128 128" version="1.1" xmlns="http://www.w3.org/2000/svg" xmlns:xlink="http://www.w3.org/1999/xlink">
    
    <title>iPhone</title>
    <desc>Created with Sketch.</desc>
    <defs></defs>
    <g id="Page-1" stroke="none" stroke-width="1" fill="none" fill-rule="evenodd">
        <g id="Apple-Icons" transform="translate(-151.000000, -224.000000)" fill="#000000">
            <g id="128px" transform="translate(120.000000, 224.000000)">
                <path d="M94,120 C94,123.308 91.308,126 88,126 L40,126 C36.692,126 34,123.308 34,120 L34,8 C34,4.692 36.692,2 40,2 L88,2 C91.308,2 94,4.692 94,8 L94,120 Z M96,26 L96,8 C96,3.6 92.4,0 88,0 L40,0 C35.6,0 32,3.6 32,8 L32,16 C31.45,16 31,16.45 31,17 L31,19 C31,19.55 31.45,20 32,20 L32,26 C31.45,26 31,26.45 31,27 L31,33 C31,33.55 31.45,34 32,34 L32,36 C31.45,36 31,36.45 31,37 L31,43 C31,43.55 31.45,44 32,44 L32,120 C32,124.4 35.6,128 40,128 L88,128 C92.4,128 96,124.4 96,120 L96,36 C96.55,36 97,35.55 97,35 L97,27 C97,26.45 96.55,26 96,26 L96,26 Z M53.5,9 C53.776,9 54,8.776 54,8.5 C54,8.224 53.776,8 53.5,8 C53.224,8 53,8.224 53,8.5 C53,8.776 53.224,9 53.5,9 L53.5,9 Z M56.5,9 L71.5,9 C71.775,9 72,8.775 72,8.5 C72,8.225 71.775,8 71.5,8 L56.5,8 C56.225,8 56,8.225 56,8.5 C56,8.775 56.225,9 56.5,9 L56.5,9 Z M64,123 C62.346,123 61,121.654 61,120 C61,118.346 62.346,117 64,117 C65.654,117 67,118.346 67,120 C67,121.654 65.654,123 64,123 L64,123 Z M64,116 C61.791,116 60,117.791 60,120 C60,122.209 61.791,124 64,124 C66.209,124 68,122.209 68,120 C68,117.791 66.209,116 64,116 L64,116 Z M91,110.02 C91,111.663 89.663,113 88.02,113 L39.98,113 C38.337,113 37,111.663 37,110.02 L37,18.98 C37,17.337 38.337,16 39.98,16 L88.02,16 C89.663,16 91,17.337 91,18.98 L91,110.02 Z M88.02,15 L39.98,15 C37.782,15 36,16.782 36,18.98 L36,110.02 C36,112.218 37.782,114 39.98,114 L88.02,114 C90.218,114 92,112.218 92,110.02 L92,18.98 C92,16.782 90.218,15 88.02,15 L88.02,15 Z" id="iPhone"></path>
            </g>
        </g>
    </g>
</svg>